<mxfile host="app.diagrams.net" modified="2023-05-31T12:48:32.926Z" agent="Mozilla/5.0 (Windows NT 10.0; Win64; x64) AppleWebKit/537.36 (KHTML, like Gecko) Chrome/113.0.0.0 Safari/537.36 Edg/113.0.1774.57" etag="Ip2-BPBxhZDTDTdpICgG" version="21.3.6" type="github">
  <diagram name="第 1 页" id="m74wIfUGkzFdu5kbFBNn">
    <mxGraphModel dx="996" dy="541" grid="1" gridSize="10" guides="1" tooltips="1" connect="1" arrows="1" fold="1" page="1" pageScale="1" pageWidth="827" pageHeight="1169" math="0" shadow="0">
      <root>
        <mxCell id="0" />
        <mxCell id="1" parent="0" />
        <mxCell id="ir7tL0CZRKs3wUgeUITk-1" value="" style="rounded=0;whiteSpace=wrap;html=1;fillColor=none;strokeWidth=2;" parent="1" vertex="1">
          <mxGeometry x="130" y="80" width="720" height="220" as="geometry" />
        </mxCell>
        <mxCell id="ir7tL0CZRKs3wUgeUITk-2" value="&lt;font style=&quot;font-size: 20px;&quot; face=&quot;Times New Roman&quot;&gt;-Π&lt;/font&gt;" style="text;html=1;strokeColor=none;fillColor=none;align=center;verticalAlign=middle;whiteSpace=wrap;rounded=0;" parent="1" vertex="1">
          <mxGeometry x="80" y="280" width="60" height="30" as="geometry" />
        </mxCell>
        <mxCell id="ir7tL0CZRKs3wUgeUITk-3" value="&lt;font style=&quot;font-size: 20px;&quot; face=&quot;Times New Roman&quot;&gt;0&lt;/font&gt;" style="text;html=1;strokeColor=none;fillColor=none;align=center;verticalAlign=middle;whiteSpace=wrap;rounded=0;" parent="1" vertex="1">
          <mxGeometry x="80" y="175" width="60" height="30" as="geometry" />
        </mxCell>
        <mxCell id="ir7tL0CZRKs3wUgeUITk-4" value="&lt;font style=&quot;font-size: 20px;&quot; face=&quot;Times New Roman&quot;&gt;Π&lt;/font&gt;" style="text;html=1;strokeColor=none;fillColor=none;align=center;verticalAlign=middle;whiteSpace=wrap;rounded=0;" parent="1" vertex="1">
          <mxGeometry x="80" y="70" width="60" height="30" as="geometry" />
        </mxCell>
        <mxCell id="ir7tL0CZRKs3wUgeUITk-5" value="&lt;font style=&quot;font-size: 20px;&quot; face=&quot;Times New Roman&quot;&gt;0&lt;/font&gt;" style="text;html=1;strokeColor=none;fillColor=none;align=center;verticalAlign=middle;whiteSpace=wrap;rounded=0;" parent="1" vertex="1">
          <mxGeometry x="100" y="310" width="60" height="30" as="geometry" />
        </mxCell>
        <mxCell id="ir7tL0CZRKs3wUgeUITk-6" value="&lt;font style=&quot;font-size: 20px;&quot; face=&quot;Times New Roman&quot;&gt;10&lt;/font&gt;" style="text;html=1;strokeColor=none;fillColor=none;align=center;verticalAlign=middle;whiteSpace=wrap;rounded=0;" parent="1" vertex="1">
          <mxGeometry x="244" y="310" width="60" height="30" as="geometry" />
        </mxCell>
        <mxCell id="ir7tL0CZRKs3wUgeUITk-7" value="&lt;font style=&quot;font-size: 20px;&quot; face=&quot;Times New Roman&quot;&gt;20&lt;/font&gt;" style="text;html=1;strokeColor=none;fillColor=none;align=center;verticalAlign=middle;whiteSpace=wrap;rounded=0;" parent="1" vertex="1">
          <mxGeometry x="388" y="310" width="60" height="30" as="geometry" />
        </mxCell>
        <mxCell id="ir7tL0CZRKs3wUgeUITk-8" value="&lt;font style=&quot;font-size: 20px;&quot; face=&quot;Times New Roman&quot;&gt;30&lt;/font&gt;" style="text;html=1;strokeColor=none;fillColor=none;align=center;verticalAlign=middle;whiteSpace=wrap;rounded=0;" parent="1" vertex="1">
          <mxGeometry x="532" y="310" width="60" height="30" as="geometry" />
        </mxCell>
        <mxCell id="ir7tL0CZRKs3wUgeUITk-9" value="&lt;font style=&quot;font-size: 20px;&quot; face=&quot;Times New Roman&quot;&gt;40&lt;/font&gt;" style="text;html=1;strokeColor=none;fillColor=none;align=center;verticalAlign=middle;whiteSpace=wrap;rounded=0;" parent="1" vertex="1">
          <mxGeometry x="676" y="310" width="60" height="30" as="geometry" />
        </mxCell>
        <mxCell id="ir7tL0CZRKs3wUgeUITk-10" value="&lt;font style=&quot;font-size: 20px;&quot; face=&quot;Times New Roman&quot;&gt;50&lt;/font&gt;" style="text;html=1;strokeColor=none;fillColor=none;align=center;verticalAlign=middle;whiteSpace=wrap;rounded=0;" parent="1" vertex="1">
          <mxGeometry x="820" y="310" width="60" height="30" as="geometry" />
        </mxCell>
        <mxCell id="ir7tL0CZRKs3wUgeUITk-11" value="" style="shape=orEllipse;perimeter=ellipsePerimeter;whiteSpace=wrap;html=1;backgroundOutline=1;strokeColor=#CC0000;fillColor=none;" parent="1" vertex="1">
          <mxGeometry x="270" y="120" width="20" height="20" as="geometry" />
        </mxCell>
        <mxCell id="ir7tL0CZRKs3wUgeUITk-12" value="" style="shape=orEllipse;perimeter=ellipsePerimeter;whiteSpace=wrap;html=1;backgroundOutline=1;strokeColor=#CC0000;fillColor=none;" parent="1" vertex="1">
          <mxGeometry x="320" y="155" width="20" height="20" as="geometry" />
        </mxCell>
        <mxCell id="ir7tL0CZRKs3wUgeUITk-13" value="" style="shape=orEllipse;perimeter=ellipsePerimeter;whiteSpace=wrap;html=1;backgroundOutline=1;strokeColor=#CC0000;fillColor=none;" parent="1" vertex="1">
          <mxGeometry x="470" y="110" width="20" height="20" as="geometry" />
        </mxCell>
        <mxCell id="ir7tL0CZRKs3wUgeUITk-14" value="" style="shape=orEllipse;perimeter=ellipsePerimeter;whiteSpace=wrap;html=1;backgroundOutline=1;strokeColor=#CC0000;fillColor=none;" parent="1" vertex="1">
          <mxGeometry x="540" y="210" width="20" height="20" as="geometry" />
        </mxCell>
        <mxCell id="ir7tL0CZRKs3wUgeUITk-16" value="" style="shape=orEllipse;perimeter=ellipsePerimeter;whiteSpace=wrap;html=1;backgroundOutline=1;strokeColor=#CC0000;fillColor=none;" parent="1" vertex="1">
          <mxGeometry x="592" y="270" width="20" height="20" as="geometry" />
        </mxCell>
        <mxCell id="ir7tL0CZRKs3wUgeUITk-17" value="&lt;font style=&quot;font-size: 20px;&quot;&gt;T2&lt;/font&gt;" style="text;html=1;strokeColor=none;fillColor=none;align=center;verticalAlign=middle;whiteSpace=wrap;rounded=0;fontFamily=Times New Roman;" parent="1" vertex="1">
          <mxGeometry x="270" y="100" width="60" height="30" as="geometry" />
        </mxCell>
        <mxCell id="ir7tL0CZRKs3wUgeUITk-18" value="&lt;font style=&quot;font-size: 20px;&quot;&gt;T4&lt;/font&gt;" style="text;html=1;strokeColor=none;fillColor=none;align=center;verticalAlign=middle;whiteSpace=wrap;rounded=0;fontFamily=Times New Roman;" parent="1" vertex="1">
          <mxGeometry x="328" y="140" width="60" height="30" as="geometry" />
        </mxCell>
        <mxCell id="ir7tL0CZRKs3wUgeUITk-19" value="&lt;font style=&quot;font-size: 20px;&quot;&gt;T1&lt;/font&gt;" style="text;html=1;strokeColor=none;fillColor=none;align=center;verticalAlign=middle;whiteSpace=wrap;rounded=0;fontFamily=Times New Roman;" parent="1" vertex="1">
          <mxGeometry x="470" y="90" width="60" height="30" as="geometry" />
        </mxCell>
        <mxCell id="ir7tL0CZRKs3wUgeUITk-20" value="&lt;font style=&quot;font-size: 20px;&quot;&gt;Tm&lt;/font&gt;" style="text;html=1;strokeColor=none;fillColor=none;align=center;verticalAlign=middle;whiteSpace=wrap;rounded=0;fontFamily=Times New Roman;" parent="1" vertex="1">
          <mxGeometry x="540" y="190" width="60" height="30" as="geometry" />
        </mxCell>
        <mxCell id="ir7tL0CZRKs3wUgeUITk-21" value="&lt;font style=&quot;font-size: 20px;&quot;&gt;T3&lt;/font&gt;" style="text;html=1;strokeColor=none;fillColor=none;align=center;verticalAlign=middle;whiteSpace=wrap;rounded=0;fontFamily=Times New Roman;" parent="1" vertex="1">
          <mxGeometry x="592" y="250" width="60" height="30" as="geometry" />
        </mxCell>
        <mxCell id="ir7tL0CZRKs3wUgeUITk-22" value="&lt;font face=&quot;仿宋&quot; style=&quot;font-size: 20px;&quot;&gt;估计入侵者到达时间（&lt;font style=&quot;font-size: 20px;&quot;&gt;秒）&lt;/font&gt;&lt;/font&gt;" style="text;strokeColor=none;fillColor=none;html=1;fontSize=24;fontStyle=1;verticalAlign=middle;align=center;" parent="1" vertex="1">
          <mxGeometry x="440" y="340" width="100" height="40" as="geometry" />
        </mxCell>
        <mxCell id="ir7tL0CZRKs3wUgeUITk-23" value="&lt;font face=&quot;仿宋&quot; style=&quot;font-size: 20px;&quot;&gt;估计入侵点角度位置（弧度）&lt;/font&gt;" style="text;html=1;fontSize=24;fontStyle=1;verticalAlign=middle;align=center;horizontal=0;" parent="1" vertex="1">
          <mxGeometry x="20" y="175" width="100" height="40" as="geometry" />
        </mxCell>
      </root>
    </mxGraphModel>
  </diagram>
</mxfile>
